<svg width="100" height="30" viewBox="0 0 100 30" fill="none" xmlns="http://www.w3.org/2000/svg">
<path d="M48.9226 18.3609C48.9226 12.1338 44.0314 7.08614 37.9983 7.08614C31.9648 7.08614 27.0736 12.1338 27.0736 18.3609C27.0736 24.588 31.9648 29.6357 37.9983 29.6357C44.0314 29.6357 48.9226 24.588 48.9226 18.3609ZM43.3852 18.3609C43.3852 21.4318 40.9733 23.9211 37.9983 23.9211C35.0229 23.9211 32.6109 21.4318 32.6109 18.3609C32.6109 15.29 35.0229 12.8008 37.9983 12.8008C40.9733 12.8008 43.3852 15.29 43.3852 18.3609Z" fill="#ED1B30"/>
<path d="M19.6809 22.9396C18.2594 23.7581 16.6605 24.1674 14.8843 24.1674C13.2097 24.1674 11.7186 23.7788 10.4116 23.0011C9.10431 22.2235 8.08316 21.139 7.34739 19.7473C6.61084 18.356 6.24353 16.7741 6.24353 15.0001C6.24353 13.1995 6.61084 11.6033 7.34739 10.212C8.08316 8.82063 9.11085 7.74291 10.4309 6.97878C11.7501 6.21543 13.2601 5.83311 14.9605 5.83311C17.6501 5.83311 19.9474 6.91123 21.8505 9.06592L25.8098 5.13727C24.5155 3.5276 22.9167 2.2998 21.0132 1.45388C19.1097 0.608753 16.9905 0.185183 14.6563 0.185183C11.8639 0.185183 9.35162 0.81951 7.11892 2.08821C4.88545 3.35688 3.14083 5.11664 1.88467 7.36778C0.628507 9.61854 0.000427246 12.163 0.000427246 15.0001C0.000427246 17.8379 0.628507 20.382 1.88467 22.6328C3.14083 24.8835 4.87276 26.6432 7.08085 27.9119C9.28855 29.1806 11.7755 29.8149 14.542 29.8149C16.4701 29.8149 18.3867 29.5013 20.2901 28.8737C22.1932 28.2465 23.8682 27.3463 25.3148 26.1729V14.5499H19.6809V22.9396Z" fill="#ED1B2F"/>
<path d="M49.8276 29.3242H55.7661V0.285112H49.8276V29.3242Z" fill="#ED1B2F"/>
<path d="M76.5536 29.3239V16.7598C76.5536 13.4861 75.7032 11.0372 74.0032 9.41401C72.3024 7.79084 69.8662 6.97872 66.6943 6.97872C65.0443 6.97872 63.4397 7.21091 61.8789 7.67456C60.3181 8.13861 58.9793 8.79359 57.8627 9.63873L59.9947 14.0997C60.7304 13.4726 61.625 12.9743 62.6781 12.6059C63.7312 12.2376 64.8035 12.0534 65.8947 12.0534C67.4681 12.0534 68.6482 12.4289 69.4351 13.1788C70.2212 13.9294 70.6151 15 70.6151 16.3913H65.8947C62.9 16.3913 60.6858 16.9784 59.2523 18.1511C57.8181 19.3249 57.1016 20.9342 57.1016 22.9805C57.1016 24.2631 57.4062 25.409 58.015 26.4181C58.6243 27.428 59.5054 28.2187 60.6608 28.7919C61.815 29.3647 63.1789 29.6514 64.7527 29.6514C67.7981 29.6514 69.8789 28.628 70.9959 26.5821V29.3239H76.5536ZM70.6151 22.3664C70.2851 23.3488 69.7266 24.0923 68.9401 24.5969C68.1532 25.1022 67.2524 25.3543 66.2374 25.3543C65.1966 25.3543 64.3781 25.1157 63.7824 24.6378C63.1854 24.161 62.8877 23.5124 62.8877 22.6939C62.8877 20.975 64.1058 20.1157 66.542 20.1157H70.6151V22.3664Z" fill="#ED1B2F"/>
<path d="M91.5109 6.97857C90.1148 6.97857 88.8332 7.23101 87.6663 7.73555C86.4986 8.24088 85.5213 8.957 84.7351 9.88428V7.30606H79.0632V29.3237H85.0017V18.4375C85.0017 16.473 85.4451 14.9935 86.334 13.9972C87.2221 13.0016 88.4144 12.5034 89.9121 12.5034C91.2571 12.5034 92.2848 12.9333 92.9955 13.7927C93.7055 14.6521 94.0613 15.9554 94.0613 17.7008V29.3237H99.9998V16.7187C99.9998 13.4998 99.2194 11.0712 97.6586 9.43413C96.0979 7.79708 94.0482 6.97857 91.5109 6.97857Z" fill="#ED1B2F"/>
<path d="M60.6235 0.36628H57.5731V0.897775H58.7958V4.35134H59.4008V0.897775H60.6235V0.36628ZM66.7297 0.877561V0.36628H64.0139V4.35134H66.7297V3.84006H64.6062V2.5579H66.5301V2.05332H64.6062V0.877561H66.7297ZM70.8347 3.81979V0.36628H70.2297V4.35134H72.7009V3.81979H70.8347ZM78.7878 0.877561V0.36628H76.072V4.35134H78.7878V3.84006H76.664V2.5579H78.5882V2.05332H76.664V0.877561H78.7878ZM83.9802 3.86664C83.1694 3.86664 82.5644 3.21563 82.5644 2.359C82.5644 1.50197 83.1694 0.850975 83.9802 0.850975C84.4179 0.850975 84.8232 1.03713 85.0163 1.263L85.3382 0.891073C85.0486 0.532214 84.5402 0.29998 83.9159 0.29998C82.8155 0.29998 81.9659 1.20305 81.9659 2.359C81.9659 3.51453 82.8155 4.41764 83.9159 4.41764C84.5402 4.41764 85.0486 4.18541 85.3382 3.82655L85.0163 3.45462C84.8232 3.68049 84.4179 3.86664 83.9802 3.86664ZM90.3567 4.43115C91.5087 4.43115 92.3583 3.55422 92.3517 2.37883C92.3583 1.20303 91.5087 0.332938 90.3567 0.332938C89.2179 0.332938 88.3748 1.20303 88.3683 2.37883C88.3748 3.55422 89.2179 4.43115 90.3567 4.43115ZM90.3567 3.87972C89.5652 3.87972 88.9733 3.24221 88.9667 2.37883C88.9733 1.51545 89.5652 0.877561 90.3567 0.877561C91.1675 0.877561 91.7533 1.51545 91.7533 2.37883C91.7533 3.24221 91.1675 3.87972 90.3567 3.87972ZM99.4168 0.36628L97.8914 2.57136L96.3664 0.36628H95.8321V4.35134H96.4179V1.40235L97.8206 3.41491H97.956L99.3652 1.40235V4.35134H99.951V0.36628H99.4168Z" fill="#3E484F"/>
</svg>
