<svg xmlns="http://www.w3.org/2000/svg" width="100" height="100" viewBox="0 0 100 100" fill="none">
<path d="M77.6571 52.9619C77.9465 50.4659 79.8004 49.2089 81.7718 49.2089C83.7432 49.2089 85.4976 50.4388 85.5609 52.9619H77.6662H77.6571ZM81.9165 46.2065C77.9556 46.2065 74.1122 48.9376 74.1122 54.1646C74.1122 59.3916 78.0731 62.2674 82.1516 62.2674C84.3491 62.2674 86.402 61.4354 87.9755 59.8709L86.0493 57.6463C84.9912 58.7224 83.5986 59.1836 82.2059 59.1836C80.1259 59.1836 78.2449 58.1256 77.7476 55.7472H88.8165C88.9341 54.9875 88.9341 54.3636 88.9341 54.3093C88.9341 48.6754 85.6785 46.2065 81.9165 46.2065Z" fill="#2CD5C4"/>
<path d="M11.3588 49.9595H7.80481V43.8915H11.4131C13.6467 43.8915 14.7319 45.3294 14.7319 46.8577C14.7319 48.386 13.6196 49.9595 11.3588 49.9595ZM11.8833 40.6992H4.30507V49.9595H0.000488281V53.3688H4.30507V61.9509H7.79577V53.3688H11.7296C15.9618 53.3688 18.2769 50.068 18.2769 46.8938C18.2769 43.7197 16.1336 40.6992 11.8743 40.6992" fill="#2CD5C4"/>
<path d="M94.3114 48.4765V46.4779H90.9925V61.9509H94.3656V53.405C94.3656 50.7373 95.8035 49.7064 97.5398 49.7064C98.1276 49.7064 98.8059 49.8239 99.4751 50.0862L99.9996 46.5955C99.4389 46.4146 98.7968 46.3604 98.2633 46.3604C96.7621 46.3604 95.1795 46.8849 94.3023 48.4765" fill="#2CD5C4"/>
<path d="M66.6408 46.2155C64.588 46.2155 62.8245 47.1289 61.7393 48.8561V46.4778H58.4476V55.3402C58.4476 57.6281 57.6518 59.1835 55.5718 59.1835C53.3743 59.1835 52.4881 57.4563 52.4881 55.3944L52.461 49.6067H55.807V46.4687H52.4881V37.7148H49.0788V55.9189C49.0788 59.7623 51.5747 62.2582 55.3005 62.2582C56.9735 62.2582 58.737 61.7609 60.0302 60.4677C61.7665 58.7042 61.8207 56.3892 61.8207 54.6529C61.8207 52.7719 62.1463 49.4259 65.5465 49.4259C67.5722 49.4259 68.775 50.6286 68.775 52.9437V61.9236H72.1481V51.8223C72.1481 48.0332 69.5346 46.1884 66.6317 46.1884" fill="#2CD5C4"/>
<path d="M26.0889 59.1926C23.8009 59.1926 21.5944 57.5739 21.5944 54.2008C21.5944 50.8276 23.8552 49.2089 26.1431 49.2089C28.4311 49.2089 30.7823 50.8276 30.7823 54.1736C30.7823 57.5196 28.404 59.1926 26.0889 59.1926ZM35.304 59.2559C34.689 59.2559 34.1283 58.9032 34.1283 57.8452V46.4869H30.8366V48.395C29.6338 46.8124 27.6986 46.2246 25.9352 46.2246C22.146 46.2246 18.2122 48.8652 18.2122 54.3002C18.2122 59.7352 21.8566 62.2854 25.5463 62.2854C27.6895 62.2854 29.8057 61.3721 31.2435 59.7352C31.8042 61.4987 33.2059 62.2854 34.68 62.2854C35.53 62.2854 36.4434 62.0232 37.1759 61.5258L36.4163 59.0027C36.0907 59.1474 35.6838 59.265 35.304 59.265" fill="#2CD5C4"/>
<path d="M41.8603 48.4765V46.4779H38.5414V61.9509H41.9146V53.405C41.9146 50.7373 43.3525 49.7064 45.0888 49.7064C45.6766 49.7064 46.3548 49.8239 47.024 50.0862L47.5485 46.5955C46.9878 46.4146 46.3458 46.3604 45.8213 46.3604C44.3201 46.3604 42.7375 46.8849 41.8603 48.4765Z" fill="#2CD5C4"/>
</svg>