<svg width="80" height="62" viewBox="0 0 80 62" fill="none" xmlns="http://www.w3.org/2000/svg">
<path fill-rule="evenodd" clip-rule="evenodd" d="M33.3865 50.8467C30.701 43.295 26.6433 41.2356 19.9386 41.2356H13.3104L12.303 38.4155C11.7336 36.8134 12.4421 35.6866 13.9432 35.6866C15.8251 35.6866 17.0604 36.716 17.7159 38.5792C17.7517 38.6808 17.9927 38.8901 18.2413 38.8901H28.5617C28.9349 38.8901 28.9576 38.6953 28.9218 38.5993C26.938 33.1885 24.2422 30.5239 18.7453 29.7363C16.2437 29.337 13.8296 29.337 11.4699 29.337C-1.45607 29.337 -1.97457 31.8876 3.23106 45.9838C7.9898 58.8696 11.4189 61.3159 23.4869 61.3159C25.9547 61.3159 28.4873 61.2012 30.6769 60.5726C35.0907 59.2558 35.1974 55.9383 33.3865 50.8467ZM22.3177 52.4481C22.8664 53.9929 22.2681 55.0229 20.82 55.0229C19.2108 55.0229 17.981 54.2789 17.3303 52.4481L14.9217 45.7185C14.9217 45.7185 15.8953 45.6978 17.5031 45.6978C18.9512 45.6978 20.2623 46.6705 20.8117 48.2146L22.3177 52.4481Z" fill="#02517D"/>
<path d="M-0.000244141 23.131C-0.000244141 10.3177 16.0759 0.757025 34.6578 0.684486C36.1919 0.678268 37.2792 0.787428 38.6171 0.93527C39.0343 0.980867 39.2237 1.38916 38.9359 1.82578C30.4265 14.7537 13.8194 23.5925 0.801257 23.9994C0.200132 24.0188 -0.000244141 23.8668 -0.000244141 23.131Z" fill="#FCB340"/>
<path d="M67.9491 30.8948C63.8487 39.4987 52.1415 46.307 37.395 47.1139C37.0514 47.1312 36.7085 47.0269 36.557 46.6303L30.4012 30.463C30.2118 29.9635 30.4466 29.6084 30.9327 29.6084H67.3032C67.8961 29.6084 68.1529 30.4699 67.9491 30.8948Z" fill="#02517D"/>
<path d="M67.9346 23.8535H30.9286C30.209 23.8535 30.1078 23.2815 30.315 22.9637L43.9075 2.07782C44.1623 1.68611 44.5293 1.54241 45.1056 1.67229C56.9525 4.31066 68.1729 13.2717 68.6838 23.0473C68.7099 23.524 68.5536 23.8535 67.9346 23.8535Z" fill="#FCB340"/>
<path d="M59.6514 56.4754C59.69 56.5783 59.6328 56.6626 59.5412 56.6626H55.7431C55.6308 56.6626 55.5923 56.6198 55.5633 56.5465L53.4721 51.0453C53.4322 50.9416 53.4894 50.8581 53.583 50.8581H57.3805C57.4934 50.8581 57.532 50.9002 57.5609 50.9741L59.6514 56.4754Z" fill="#02517D"/>
<path d="M71.6439 60.8577C71.699 61.0007 71.6418 61.0843 71.5475 61.0843H67.7527L63.0353 61.085C62.9203 61.085 62.8818 61.0428 62.8529 60.9689L61.7732 58.106C61.7298 57.9934 61.7876 57.9091 61.8806 57.9091L65.119 57.9084C65.2126 57.9084 65.2704 57.8241 65.2319 57.7212L64.3746 55.4566C64.0916 54.8341 63.6048 54.5792 62.9878 54.5792H62.1354H60.5826C60.4676 54.5792 60.4284 54.5419 60.4001 54.4687L59.096 51.0427C59.0581 50.9398 59.116 50.8548 59.2089 50.8548L63.8499 50.8562L63.9787 50.8576C65.5156 50.8576 67.3114 52.2213 67.9283 53.8572L69.4163 57.793C69.4432 57.8663 69.4831 57.9091 69.5961 57.9091H70.3955C70.5091 57.9091 70.549 57.9526 70.5759 58.0266L71.6439 60.8577Z" fill="#02517D"/>
<path d="M71.8507 58.096C71.8121 57.9931 71.8693 57.9088 71.9629 57.9088L74.5072 57.9081C75.1655 57.9081 75.4581 57.6159 75.1847 56.8946L74.6924 55.5903C74.4211 54.8691 73.9074 54.5775 73.2499 54.5775H70.6884C70.5493 54.5761 70.5086 54.5333 70.4825 54.4601L69.2072 51.088C69.1521 50.9409 69.21 50.8566 69.3036 50.8566H74.2414C75.7776 50.8566 77.5734 52.2196 78.1904 53.8563L79.7865 58.0836C80.4035 59.7195 79.6378 61.0833 78.1015 61.0833L73.1156 61.084C73.0027 61.084 72.962 61.0411 72.9352 60.9672L71.8507 58.096Z" fill="#02517D"/>
<path d="M50.2769 58.0408C50.8195 58.0408 50.8215 57.7976 50.668 57.3914L48.3151 51.1647L48.2773 51.0452C48.2387 50.9416 48.2965 50.858 48.3902 50.858H51.7986C51.9116 50.858 51.9529 50.9001 51.979 50.974L54.4421 57.4763L54.838 58.552C55.3613 59.9351 54.7154 61.084 53.4168 61.084H43.9799C42.6819 61.084 41.1691 59.9351 40.6458 58.552L37.8151 51.0452C37.7772 50.9416 37.8323 50.858 37.9259 50.858H41.335C41.45 50.858 41.4879 50.9001 41.5168 50.974L43.9799 57.4763C44.1196 57.8466 44.4116 58.0408 44.76 58.0408H45.4927C45.5787 58.0408 45.6345 57.9703 45.6145 57.8805L43.0338 51.0452C42.9959 50.9416 43.0537 50.858 43.1474 50.858H46.5558C46.6715 50.858 46.7094 50.9001 46.7383 50.974L49.3335 57.8245C49.401 58.0042 49.4024 58.0408 49.6214 58.0408H50.2769Z" fill="#02517D"/>
</svg>
