<svg width="82" height="70" viewBox="0 0 82 70" fill="none" xmlns="http://www.w3.org/2000/svg">
<g clip-path="url(#clip0_42_89)">
<mask id="mask0_42_89" style="mask-type:luminance" maskUnits="userSpaceOnUse" x="-77" y="-79" width="776" height="1112">
<path d="M-76.1592 1032.36H698.644V-78.818H-76.1592V1032.36Z" fill="white"/>
</mask>
<g mask="url(#mask0_42_89)">
<path d="M47.3839 64.3643C25.7668 64.3643 1.32172 51.88 1.32172 28.6307C1.32172 10.8544 18.846 1.08239 40.4649 1.08239C62.0801 1.08239 79.6044 13.4155 79.6044 28.6307C79.6044 43.8459 62.0801 52.2141 40.4649 52.0872C23.9391 51.9901 31.5724 61.5083 47.5497 63.5187L47.3839 64.3643Z" fill="#FCD213"/>
<path d="M40.4643 52.0862C23.9386 51.991 31.5719 61.5073 47.5491 63.5195C42.1681 60.1726 39.3637 58.4683 48.1177 57.6321C69.4377 55.5918 79.6038 43.8467 79.6038 28.6315C79.6038 43.8467 62.0795 52.2131 40.4643 52.0862Z" fill="#FAB80A"/>
</g>
<path d="M10.0459 27.3601C11.7894 27.3601 13.4836 27.3601 15.1786 27.3601C16.9795 27.3593 18.7803 27.3413 20.5806 27.3608C22.1742 27.3773 23.2393 28.5666 23.2418 30.2948C23.2456 33.4632 23.2426 36.6307 23.2426 39.7989V40.5835H20.4841V30.3487C19.6367 30.2197 18.8761 30.2891 18.023 30.3014V40.581H15.2184V30.3349H12.7566V40.5728H10.0459C10.0459 36.2127 10.0459 31.8475 10.0459 27.3601Z" fill="black"/>
<path d="M37.4921 40.5943V23.005H40.2186V27.3342C41.9917 27.3342 43.704 27.3292 45.4165 27.3357C46.6729 27.3415 47.6503 28.1741 47.9317 29.4926C48.0011 29.8182 48.0162 30.1637 48.0179 30.5008C48.0258 32.8454 48.0354 35.189 48.0203 37.5337C48.0075 39.489 46.9511 40.6261 45.1806 40.6294C42.8687 40.6334 40.5565 40.6317 38.2438 40.6294C38.0166 40.6294 37.7895 40.609 37.4921 40.5943ZM40.2696 37.5011H45.2484V30.3938H40.2696V37.5011Z" fill="black"/>
<path d="M69.4976 40.6128C66.7878 40.6128 64.1394 40.6404 61.4911 40.6005C60.1884 40.5808 59.1041 39.4681 59.0706 38.028C59.0061 35.3153 59.0053 32.5985 59.0706 29.8864C59.1057 28.4358 60.2553 27.3533 61.5907 27.3395C63.3397 27.3223 65.089 27.3296 66.8381 27.3361C68.4047 27.342 69.4959 28.501 69.5541 30.235C69.5782 30.969 69.5661 31.7052 69.5565 32.4409C69.5327 34.2622 68.454 35.4574 66.7942 35.4785C65.2253 35.499 63.6563 35.4875 62.0874 35.4926C62.0379 35.4926 61.9885 35.5178 61.9007 35.5415C61.6936 36.1521 61.876 36.7962 61.7885 37.5285H69.4976C69.4976 38.6176 69.4976 39.6061 69.4976 40.6128ZM66.7766 32.4066C66.7903 31.6996 66.8515 31.0597 66.736 30.3968H61.8497V32.4066H66.7766Z" fill="black"/>
<path d="M35.6194 33.9031C35.6194 35.1733 35.6307 36.4444 35.617 37.7155C35.5986 39.3475 34.5455 40.5688 33.062 40.6031C31.265 40.6455 29.4657 40.6438 27.6687 40.607C26.2154 40.5769 25.1431 39.3964 25.1239 37.7972C25.0937 35.2281 25.0937 32.6573 25.1255 30.0882C25.1455 28.4556 26.2321 27.2612 27.7238 27.2286C29.4951 27.1885 31.2682 27.1935 33.0404 27.2294C34.5463 27.2595 35.5884 28.4407 35.6115 30.0907C35.629 31.361 35.6147 32.632 35.6147 33.9031C35.6162 33.9031 35.6178 33.9031 35.6194 33.9031ZM32.8683 30.325H27.8928V37.5213H32.8683V30.325Z" fill="black"/>
<path d="M10.0955 18.7499C10.1065 15.5319 12.3954 13.0878 15.3843 13.1015C18.196 13.1153 20.4625 15.6903 20.441 18.8454C20.4188 21.9493 18.1044 24.4653 15.2559 24.4833C12.4034 24.5013 10.0843 21.9249 10.0955 18.7499ZM15.2145 15.1597C13.4271 15.1881 11.965 16.8608 11.9897 18.8479C12.0135 20.7909 13.5228 22.4154 15.2669 22.3763C17.0919 22.3355 18.5899 20.6782 18.5469 18.7476C18.503 16.7564 16.9929 15.1319 15.2145 15.1597Z" fill="black"/>
<path d="M29.5302 17.1571H26.8682C26.8674 15.1832 27.8201 13.7593 29.4306 13.2753C31.1007 12.7725 33.011 13.4958 33.7906 14.9259C34.6212 16.4509 34.379 18.3817 33.1975 19.7556C32.6546 20.3874 32.1299 21.0374 31.6015 21.6739H34.2841C34.4333 22.479 34.3184 23.2317 34.3647 24.0464H26.6793C27.5746 22.9624 28.4061 21.9517 29.2416 20.9433C29.7431 20.3385 30.2612 19.7492 30.75 19.1318C31.1939 18.5702 31.5105 17.9287 31.6038 17.175C31.7099 16.3203 31.3041 15.5888 30.6702 15.495C30.0437 15.402 29.6284 15.9276 29.5694 16.8829C29.5645 16.9635 29.5469 17.0436 29.5302 17.1571Z" fill="black"/>
<path d="M54.489 22.9892H57.1606V40.5811H54.489V22.9892Z" fill="black"/>
<path d="M52.5756 27.4188V40.563H49.9359V27.4188H52.5756Z" fill="black"/>
<path d="M21.1863 15.8672V13.6338H25.0218V24.0425H22.4995V15.9523C22.0194 15.9212 21.6408 15.8967 21.1863 15.8672Z" fill="black"/>
<path d="M49.9073 22.9885H52.5652V25.9683H49.9073V22.9885Z" fill="black"/>
<path fill-rule="evenodd" clip-rule="evenodd" d="M18.6687 18.7378C18.6687 20.7264 17.1429 22.4243 15.2598 22.4243C13.3768 22.4243 11.85 20.7264 11.85 18.7378C11.85 16.7491 13.3768 15.1367 15.2598 15.1367C17.1429 15.1367 18.6687 16.7491 18.6687 18.7378Z" fill="white"/>
<path fill-rule="evenodd" clip-rule="evenodd" d="M27.8682 30.2569H32.8962V37.6157H27.8682V30.2569Z" fill="white"/>
</g>
<defs>
<clipPath id="clip0_42_89">
<rect width="82" height="70" fill="white"/>
</clipPath>
</defs>
</svg>
