<svg width="66" height="68" viewBox="0 0 66 68" fill="none" xmlns="http://www.w3.org/2000/svg">
<path d="M27.2768 16.5014C25.9319 17.6565 25.2592 19.0227 25.2592 20.5998C25.2592 21.8985 25.5498 23.0332 26.1311 24.0052C26.5208 24.6585 27.1613 25.3753 28.053 26.1561C29.0717 27.0482 29.712 27.6657 29.9749 28.0081C30.5641 28.7645 30.8627 29.6049 30.8706 30.5293V36.9096C30.8706 37.8497 30.5719 38.71 29.9749 39.4903C29.6802 39.8809 29.0281 40.5218 28.0173 41.4143C27.1018 42.2185 26.4491 42.9354 26.0592 43.5648C25.4622 44.5049 25.1641 45.5881 25.1641 46.8148C25.1641 48.4156 25.8129 49.7857 27.1097 50.9256C28.415 52.0562 29.9827 52.6223 31.8133 52.6223C33.5566 52.6223 35.0881 52.0562 36.4094 50.9256C37.7466 49.7699 38.415 48.3997 38.415 46.8148C38.415 45.5167 38.1203 44.3814 37.5313 43.4094C37.1335 42.7561 36.4808 42.0432 35.5741 41.2707C34.5385 40.3782 33.887 39.7611 33.6159 39.4187C33.0188 38.6702 32.7165 37.8297 32.7085 36.8974V30.5647C32.7085 29.6166 33.0111 28.7524 33.6159 27.9719C33.9185 27.5733 34.5831 26.9239 35.6097 26.024C36.5401 25.2114 37.2047 24.4906 37.6035 23.8612C38.2077 22.9136 38.51 21.826 38.51 20.5993C38.51 18.9984 37.8613 17.6323 36.564 16.5009C35.2595 15.3618 33.6913 14.7924 31.8609 14.7924C30.1181 14.7929 28.5901 15.3623 27.2768 16.5014ZM60.4764 11.3274C61.5985 14.4343 61.4438 17.808 60.0102 21.4482C58.6257 24.9613 56.1984 28.3668 52.7285 31.6643C57.2647 34.3807 60.6116 37.3159 62.7689 40.4706C65.0365 43.7842 65.8926 47.2139 65.3351 50.7583C64.8976 53.571 63.4652 56.1313 61.0381 58.4415C58.7695 60.6079 55.7728 62.4287 52.0482 63.9022C48.4505 65.3277 44.4798 66.3078 40.1342 66.842C35.749 67.3909 31.3835 67.4386 27.0383 66.9847C21.6422 66.4269 16.509 64.9337 11.6382 62.5042C7.26093 60.329 3.54806 57.6405 0.5 54.4385C2.20373 53.2839 3.72758 51.9099 5.07227 50.3163C6.42577 48.7227 7.53174 46.9785 8.39127 45.0827C9.72836 42.0958 10.397 38.969 10.397 35.703C10.397 32.5966 9.79565 29.629 8.59409 26.8014C7.8859 25.1444 7.11815 23.7306 6.29036 22.5596C4.87326 20.5521 3.05077 18.7601 0.82241 17.1826C3.19402 14.5223 6.07518 12.0882 9.46551 9.88188C12.9753 7.58809 16.8033 5.68018 20.9501 4.15828C25.3748 2.53357 29.7879 1.47812 34.1887 0.992161C38.4391 0.529999 42.3868 0.629833 46.0311 1.29047C49.6844 1.9523 52.7485 3.12687 55.2232 4.81547C57.7865 6.55988 59.5373 8.73064 60.4764 11.3274Z" fill="#1F5394"/>
</svg>
