<svg width="82" height="74" viewBox="0 0 82 74" fill="none" xmlns="http://www.w3.org/2000/svg">
<path d="M75.8612 73.1679C77.2029 73.8661 79.2787 74.4786 79.5321 73.4624C80.0358 71.564 76.5002 65.3246 73.9214 60.2337C71.7418 55.8879 69.7252 52.2059 66.1673 45.8835C65.179 44.0948 62.7407 39.814 61.5534 37.5253C60.479 35.4837 59.9307 34.0098 59.6496 33.4038C59.0475 32.1209 59.1334 31.266 59.7225 30.0319C60.3254 28.818 61.9158 26.8506 64.5308 24.4696C64.9977 24.0346 67.0059 22.3337 69.0816 20.716C73.1695 17.5458 78.9254 13.3884 80.6879 11.3556C81.998 9.82075 82.4464 8.37379 81.4812 7.78606C80.2392 7.05 78.0553 6.96945 71.6872 7.81956C64.2955 8.80236 56.5859 10.5389 50.7165 10.7454C49.2436 10.8013 47.1638 10.7097 45.5095 9.56983C44.2677 8.71946 43.1343 6.68882 41.4485 3.67785C39.9027 0.91128 39.0962 -0.0578347 37.8722 0.00264538C36.9023 0.0653413 35.9007 0.370609 34.8357 1.52377C33.6391 2.81862 32.2753 5.3696 30.1227 9.21516C26.057 16.4531 23.016 16.9534 20.3826 18.2303C19.7029 18.5713 13.6936 20.4312 9.28321 21.8919C7.08073 22.6097 5.34047 23.3122 4.02175 23.9832C2.866 24.5794 2.71632 25.6047 3.38272 26.368C3.38272 26.368 3.56401 26.9422 7.28479 28.8674C8.08285 29.2732 9.12023 29.7919 10.1539 30.3615C12.1345 31.463 14.033 32.9395 14.0198 35.2685C11.8195 45.5208 6.59229 54.7464 2.11784 65.6881C0.59506 69.3877 -0.0708176 71.0814 0.00593354 71.9411C0.0696515 72.3604 0.635737 72.6295 1.22934 72.4098C3.41879 71.564 7.78769 68.0951 10.2622 66.2669C12.0798 64.9431 18.937 59.5583 23.9856 56.0428C27.5842 53.5519 30.4894 51.8939 33.44 51.2191C38.5155 50.0611 43.4243 52.141 52.8917 58.4185C61.399 64.0742 73.0696 71.6939 75.8612 73.1679Z" fill="#6C1F6C"/>
</svg>
