<svg width="78" height="82" viewBox="0 0 78 82" fill="none" xmlns="http://www.w3.org/2000/svg">
<path d="M2.13222 33.076C1.05743 38.0004 0.372589 42.5803 0.117363 46.654C-0.127938 50.5973 -0.00742523 54.4597 0.629222 58.1151C4.5909 80.8217 24.8701 84.3027 46.94 78.7402C86.7567 68.3298 84.3746 40.4009 61.7843 17.1116C36.6686 -8.38271 10.7617 -4.24804 2.13222 33.076Z" fill="#0072B6"/>
<path d="M43.5936 22.8796C40.7365 20.4152 38.0736 21.1057 37.5816 25.0476C37.4824 25.541 37.4824 26.0344 37.4824 26.5265C37.4824 26.9192 37.4824 27.3134 37.5816 27.709C38.2707 29.9763 40.3409 30.1748 42.6082 29.3836C46.6478 28.0054 46.1558 25.0476 43.5936 22.8796ZM53.5489 24.9497C55.1256 28.3003 54.3386 31.6523 48.9179 33.7224C48.1281 34.0174 47.2405 34.2144 46.3515 34.4115C45.4653 34.6086 44.5791 34.7065 43.6914 34.905C42.3132 35.1021 41.1279 35.397 40.3409 35.7926C40.0446 39.0439 39.6504 42.1023 39.0591 44.7609C39.0591 44.958 38.9613 45.2544 38.9613 45.4515C38.6649 46.7333 38.37 47.9158 37.9758 48.9027C35.7086 55.8009 28.5126 57.0827 25.7533 49.4926C23.2875 42.4937 21.121 25.9352 24.8657 18.148C26.9345 13.9098 29.006 13.5156 31.9624 13.5156C36.5947 13.5156 41.4256 14.8938 45.9587 17.5567C48.718 19.1334 52.1692 21.9919 53.5489 24.9497Z" fill="white"/>
<path d="M36.5929 61.4202C32.454 56.9849 28.5107 57.6754 26.2435 63.3911C23.8784 69.6994 27.8216 71.9681 33.1431 70.8848C38.466 69.8965 41.2281 66.2496 36.5929 61.4202Z" fill="white"/>
</svg>
